<svg version="1.1" id="Layer_1" xmlns="http://www.w3.org/2000/svg" xmlns:xlink="http://www.w3.org/1999/xlink" x="0" y="0" viewBox="0 0 631 379" xml:space="preserve"><style>.st0{fill:#4b4b4b}</style><path class="st0" d="M605.34 339.29l-14.35-14.35-36.66-36.66-97.07-97.02c9.41-9.71 15.21-22.92 15.21-37.5V99.7c0-29.84-24.2-54.04-54.06-54.04H76.06C46.2 45.65 22 69.86 22 99.7v54.06c0 29.86 24.2 54.06 54.06 54.06h71.91L288.19 348h313.53c2.07 0 3.94-1.23 4.73-3.14.79-1.91.36-4.11-1.11-5.57zm-110.21-19.11c.11.29.34.54.46.8H340.71c-8.8-12.64-35.71-22.45-64.5-23.17L116.2 137.82h249.37L522.9 295.06c-20.48 3.97-32.25 13.71-27.77 25.12z"/><path class="st0" d="M371.47 256.8c-6.85 0-11.4 2.53-10.17 5.64 1.21 3.11 7.75 5.62 14.58 5.62 6.85 0 11.4-2.52 10.19-5.62-1.24-3.11-7.77-5.64-14.6-5.64zM232.77 200.49c8.55 21.76 54.29 39.43 102.2 39.43 47.89 0 79.78-17.67 71.23-39.43-8.57-21.76-54.31-39.43-102.2-39.43-47.9 0-79.8 17.67-71.23 39.43zm79.4-17.55c1.93-2.61 6.5-4.09 13.73-4.55 4.05-.27 7.98-.05 11.87.66 3.87.71 7.55 1.79 11.03 3.28 3.46 1.46 6.6 3.28 9.41 5.39 1.16.89 2.25 1.82 3.25 2.77l11.44-.62 6.87 8.85-11.46.54c1.23 2.11 2.14 4.12 2.64 6.03.84 3.25-1.3 6.82-1.3 6.82-.07.45-.59.75-1.39.86-.75.11-1.73-.02-2.57-.32l-10.8-3.96c-1.12-.43-1.8-1.12-1.73-1.71 0 0 1.32-2.64.73-4.82-.55-2.18-1.7-4.39-3.41-6.71-2.21-3-4.82-5.16-7.93-6.46-3.05-1.29-6.18-1.86-9.39-1.64-2.91.16-4.73.79-5.59 1.86-.84 1.07-.66 2.82.59 5.21l3.73 6.82c2.75 5.14 3.09 9.16.96 11.99-2.14 2.86-7.01 4.39-14.55 4.68-4.5.14-8.71-.23-12.67-1.18-3.98-.93-7.6-2.25-10.94-3.96s-6.28-3.75-8.89-6.16a49.388 49.388 0 01-3.07-3.27l-11.73.54-4.94-8.23 11.3-.61c-1.11-2.36-1.84-4.59-2.16-6.71-.48-3.21 2.87-7.64 2.87-7.64.14-.37.61-.64 1.27-.75.66-.07 1.46 0 2.11.25l9.55 3.53c1.03.39 1.61 1.09 1.41 1.64 0 0-2.62 3.32-2.21 5.69.41 2.39 1.34 4.75 2.84 7.1 1.95 2.98 4.43 5.41 7.55 7.3 3.14 1.93 6.64 2.82 10.6 2.64 2.84-.11 4.77-.71 5.78-1.79.96-1.07.87-2.78-.23-5.18l-4.03-7.67c-2.27-4.46-2.45-7.94-.54-10.51z"/><defs><path id="SVGID_1_" d="M-723.98 136.04c-4.36 12.96-14.13 21.51-21.78 19.08-7.64-2.38-10.37-14.86-5.96-27.83 4.38-12.98 14.21-21.5 21.82-19.08 7.65 2.39 10.39 14.87 5.92 27.83zm15.5-44.54l-10.01 6.92c-10.47-8.22-20.06-13.31-38.51-4.72-25.12 11.68-46.15 101.38 23.05 71.84l3.97 4.68 27.23.7 17.87-81.48-23.6 2.06zm70.53 96.15c-9.1 19.43-17.77 30.74-22.87 36.02-5.12 5.21-15.22 17.31-39.56 16.4l2.08-14.83c20.5-6.33 31.58-34.85 37.89-47.5l-7.53-93.07 15.83-.21h13.29l1.44 58.38 24.92-58.38h25.23l-50.72 103.19zM-850.4 95.91h27.56c7.22 0 12.92-1.66 17.09-4.99 4.12-3.35 6.84-8.47 8.38-15.42.24-1.27.38-2.42.57-3.5.08-.99.21-2 .21-2.98 0-4.96-1.77-8.56-5.29-10.8-3.52-2.3-9.05-3.39-16.67-3.39h-23.47l-8.38 41.08zm-15.54-65.06h62.05c11.95 0 21.18 2.69 27.51 8.03 6.32 5.38 9.49 13.11 9.48 23.21v.29c0 1.92-.14 4.09-.31 6.43-.31 2.31-.68 4.66-1.21 7.1a54.81 54.81 0 01-18.89 32.19 53.148 53.148 0 01-34.91 12.17h-33.27l-10.29 50.65h-28.82l28.66-140.07zm-161.67 116.35c4.17-4.54 7.16-11.43 8.98-20.59.31-1.46.54-2.93.68-4.41.14-1.35.22-2.71.22-4.08 0-5.34-1.34-9.48-4.08-12.4-2.69-2.97-6.53-4.41-11.52-4.41a20.622 20.622 0 00-16.06 6.92c-4.24 4.64-7.23 11.64-9.12 20.97-.24 1.43-.47 2.87-.66 4.27-.14 1.32-.2 2.65-.18 3.98 0 5.29 1.37 9.37 4.09 12.27 2.68 2.9 6.51 4.33 11.52 4.33 6.13.2 12.02-2.31 16.13-6.85zm-45.11 17.12c-6.2-5.95-9.33-13.95-9.37-24.12 0-1.74.13-3.71.34-5.88.25-2.19.53-4.33.94-6.32 2.81-14.03 8.81-25.17 18.03-33.39a48.102 48.102 0 0133.27-12.4c10.63 0 19.09 2.98 25.26 8.95 6.17 5.99 9.26 14.1 9.26 24.41 0 1.75-.13 3.78-.35 5.99-.28 2.21-.6 4.36-.99 6.43-2.74 13.85-8.7 24.88-17.93 32.94a48.366 48.366 0 01-33.19 12.17c-10.69.02-19.11-2.92-25.27-8.78zm-37.2-111.34h23.89l-4.47 20.98h-23.88l4.46-20.98zm-7.45 31.49h23.69l-18.56 86.43h-23.62l18.49-86.43zm145.78-.03h21.38l-2.43 12.48 3.04-3.57a33.292 33.292 0 0125.27-11.11c8.98 0 15.48 2.63 19.51 7.89 3.98 5.28 5.12 12.55 3.18 21.89l-11.71 58.9h-21.96l10.61-53.38c1.1-5.52.8-9.62-.87-12.27-1.75-2.66-4.87-3.95-9.45-3.95a20.664 20.664 0 00-14.31 5.25 25.95 25.95 0 00-7.65 14.68l-9.87 49.67h-21.95l17.21-86.48zm-244.9 0h21.32l-2.4 12.48 3.06-3.57a33.187 33.187 0 0125.26-11.11c8.96 0 15.47 2.63 19.51 7.89 4.04 5.28 5.12 12.55 3.24 21.89l-11.77 58.9h-21.95l10.61-53.38c1.09-5.52.78-9.62-.89-12.27-1.68-2.65-4.84-3.95-9.47-3.95a20.433 20.433 0 00-14.26 5.25c-4.09 3.93-6.8 9.08-7.72 14.68l-9.76 49.67h-22.02l17.24-86.48zm-27.87 38.13c-3.35 16.4-11.07 29.02-23.11 37.99-11.9 8.8-27.24 13.2-46.03 13.21-17.68 0-30.65-4.52-38.93-13.56-5.72-6.41-8.57-14.59-8.57-24.46.04-4.43.53-8.85 1.45-13.18l20.02-96.84h30.23l-19.73 95.74a30.35 30.35 0 00-.82 7.35 18.8 18.8 0 003.63 12.05c3.59 4.66 9.4 6.99 17.52 6.99 9.28 0 16.95-2.3 22.91-6.89 5.93-4.58 9.82-11.05 11.57-19.5l19.8-95.74h30.09l-20.03 96.84zm490.69 124.28h87.93l-5.18 18.28h-27.98l-4.8 16.99h27.97l-5.21 18.25h-31.11l-7.06 10.67h15.25l3.53 21.42c.42 2.14 2.28 3.18 5.52 3.18h4.73l-5 17.62h-16.73c-8.68.42-13.18-2.49-13.57-8.81l-4.04-19.54-13.88 20.8a14.943 14.943 0 01-15.11 8.19H-784l4.97-17.63h8c3.36-.07 6.49-1.7 8.48-4.41l21.7-31.49h-27.99l5.19-18.25h30.37l4.82-16.99h-30.38l5.17-18.28zm7.95-36.52h27.16l1.16 10.04c-.18 2.56 1.31 3.8 4.55 3.8h4.8l-4.86 17h-19.95c-7.62.41-11.55-2.52-11.91-8.82l-.95-22.02zm-69.78 116.49l5.5-19.55h-21.56l-5.54 19.55h21.6zm-5.44-57.3l-7.37 26.96s13.92-6.88 23.5-7.45c2.76-10.42 5.5-19.51 5.5-19.51h-21.63zm10.74-37.79l-7.32 25.74c7.57-2.86 15.41-4.95 23.4-6.22 2.39-8.98 5.5-19.53 5.5-19.53h-21.58zm-31.15 0l5.72-20.14h28.87l-1.23 7.38s14.72-7.38 25.37-7.38h35.67l-5.65 20.14h-5.61l-26.95 95.09h5.63l-5.35 18.88h-5.61l-2.33 8.19h-27.97l2.33-8.19h-55.15l5.38-18.88h5.52l26.95-95.09h-5.59zm-104.63 60.99h24.63l-.46 10.69h6.55c3.31 0 4.96-1.05 4.96-3.18l1.91-6.91h20.48l-2.74 10.08c-2.29 8.4-8.43 12.79-18.39 13.22h-13.11l-.06 18.26c-.24 2.93 2.4 4.43 7.82 4.43h12.33l-3.98 14.45h-29.57c-8.27.39-12.37-3.56-12.29-11.98l1.92-49.06zm28.8-21.45c3.17.43 4.91-.83 5.12-3.78l2.61-9.44h-42.71l-3.57 13.22h38.55zm15.46-41.54h-42.65l-5.1 17.9s7.11-5.14 18.97-5.32c11.83-.18 25.34 0 25.34 0l3.44-12.58zm-40.48-18.75l-1.19 10.31s14.23-10.7 27.17-10.7h47.79l-18.28 66.36c-1.52 7.56-8.02 11.35-19.49 11.36h-54.16l-12.68 46.59c-.74 2.49.31 3.78 3.03 3.78h10.65l-3.92 14.47h-27.09c-10.4 0-14.72-3.14-13.01-9.45l35.87-132.71h25.31zm-120.48 43.3h75.51l-4.82 17.63h-30.4l-4.61 17.02h29.54l-4.8 17.63h-29.57l-6.83 25.16c-1.69 4.2.53 6.09 6.65 5.66h24.1l-4.48 16.39h-46.23c-8.74 0-11.75-5.03-9.02-15.1l8.8-32.1h-18.89l4.8-17.63h18.88l4.64-17.02h-18.05l4.78-17.64zm4.73-23.26h4.12c3.78 0 6.34-1.29 7.54-3.81l10.72-16.11h28.76l-5.99 10.59h34.43l-4.36 16.23h-41.01c-4.72 7.14-10.54 10.48-17.54 10.07h-21.33l4.66-16.97z"/></defs><clipPath id="SVGID_2_"><use xlink:href="#SVGID_1_" overflow="visible"/></clipPath><g clip-path="url(#SVGID_2_)"><defs><path id="SVGID_3_" d="M-6480.54-2428.53h9379.31v6252.88h-9379.31z"/></defs><clipPath id="SVGID_4_"><use xlink:href="#SVGID_3_" overflow="visible"/></clipPath></g><defs><path id="SVGID_5_" d="M501.6 1032.2H255.28V899.45H501.6v132.75zm7.99-153.04h-262.3c-6.79 0-12.29 5.5-12.29 12.29v148.74c0 6.79 5.5 12.29 12.29 12.29h262.3c6.79 0 12.29-5.5 12.29-12.29V891.46c0-6.79-5.5-12.3-12.29-12.3z"/></defs><clipPath id="SVGID_6_"><use xlink:href="#SVGID_5_" overflow="visible"/></clipPath><g clip-path="url(#SVGID_6_)"><defs><path id="SVGID_7_" d="M-5387.67-1256.21h8319.62V4290.2h-8319.62z"/></defs><clipPath id="SVGID_8_"><use xlink:href="#SVGID_7_" overflow="visible"/></clipPath></g><defs><path id="SVGID_9_" d="M454.74 955.05l1.15 5.17 3.95 17.26h-14.17l9.07-22.43zm-34.15 42.82c.35.52.95.83 1.6.83h13.67c.79 0 1.5-.47 1.78-1.17 1.68-4.24 2.76-6.93 3.11-7.81.91 0 5.11 0 9.61.01h.25c5.17.01 10.67.01 11.99.01.39 1.59 1.35 5.79 1.75 7.52.19.84.97 1.43 1.86 1.43h11.92c.58 0 1.12-.25 1.49-.68.36-.43.5-.99.38-1.53l-12.97-56.13c-.19-.83-.97-1.43-1.86-1.43h-11.65c-4.66 0-7.33 1.48-8.94 4.96l-24.15 52.25c-.25.58-.19 1.23.16 1.74z"/></defs><clipPath id="SVGID_10_"><use xlink:href="#SVGID_9_" overflow="visible"/></clipPath><g clip-path="url(#SVGID_10_)"><defs><path id="SVGID_11_" d="M-5387.67-1256.21h8319.62V4290.2h-8319.62z"/></defs><clipPath id="SVGID_12_"><use xlink:href="#SVGID_11_" overflow="visible"/></clipPath></g><defs><path id="SVGID_13_" d="M373.87 996.18c4.95 1.51 11.87 2.46 18.49 2.52h.02c19.01 0 31.37-7.77 31.51-19.79.07-6.61-4.76-11.6-15.15-15.7-6.36-2.69-10.26-4.48-10.22-7.22 0-2.46 3.56-4.96 10.41-4.96h.55c5.69 0 9.7 1.12 12.23 1.97.59.2 1.24.15 1.79-.12s.92-.74 1.03-1.28l1.7-8.7c.17-.9-.43-1.77-1.43-2.05-3.12-.87-8.17-1.91-14.49-1.91-17.91 0-30.49 7.86-30.59 19.1-.11 8.33 8.99 12.97 15.86 15.74 7.04 2.83 9.41 4.64 9.37 7.18-.05 3.88-5.64 5.65-10.82 5.65-7.37 0-11.34-.97-16.96-3.01-.59-.21-1.26-.18-1.82.09s-.95.74-1.05 1.29l-1.8 9.16c-.18.88.4 1.74 1.37 2.04z"/></defs><clipPath id="SVGID_14_"><use xlink:href="#SVGID_13_" overflow="visible"/></clipPath><g clip-path="url(#SVGID_14_)"><defs><path id="SVGID_15_" d="M-5387.67-1256.21h8319.62V4290.2h-8319.62z"/></defs><clipPath id="SVGID_16_"><use xlink:href="#SVGID_15_" overflow="visible"/></clipPath></g><g><defs><path id="SVGID_17_" d="M278.07 936.89c10.69 4.18 19.44 10.81 25.3 19.17.36.52.92.8 1.49.8.26 0 .53-.06.78-.18.79-.39 1.23-1.33 1.05-2.26l-3.11-15.97c-.01-.03-.01-.07-.02-.1-1.12-4.56-4.66-5.24-7.23-5.35h-.07l-17.54-.03c-.91 0-1.68.71-1.84 1.68-.17.95.34 1.9 1.19 2.24z"/></defs><clipPath id="SVGID_18_"><use xlink:href="#SVGID_17_" overflow="visible"/></clipPath><g clip-path="url(#SVGID_18_)"><defs><path id="SVGID_19_" d="M-5387.67-1256.21h8319.62V4290.2h-8319.62z"/></defs><clipPath id="SVGID_20_"><use xlink:href="#SVGID_19_" overflow="visible"/></clipPath></g></g><g><defs><path id="SVGID_21_" d="M342.98 998.05c.32.41.79.65 1.29.65h11.67c.82 0 1.52-.64 1.66-1.51l8.87-56.13c.08-.53-.05-1.07-.37-1.48s-.79-.65-1.29-.65h-11.68c-.82 0-1.52.64-1.66 1.51l-8.86 56.13c-.09.53.05 1.07.37 1.48z"/></defs><clipPath id="SVGID_22_"><use xlink:href="#SVGID_21_" overflow="visible"/></clipPath><g clip-path="url(#SVGID_22_)"><defs><path id="SVGID_23_" d="M-5387.67-1256.21h8319.62V4290.2h-8319.62z"/></defs><clipPath id="SVGID_24_"><use xlink:href="#SVGID_23_" overflow="visible"/></clipPath></g></g><g><defs><path id="SVGID_25_" d="M291.96 951.83c-.68-.48-1.61-.5-2.32-.06-.7.45-1.02 1.26-.78 2.02l13.81 43.6c.25.78 1.02 1.31 1.89 1.31l15.91-.02c.79 0 1.5-.43 1.81-1.1l26.11-56.1c.26-.56.2-1.21-.17-1.72-.36-.51-.98-.82-1.65-.82l-14.36.01c-.81 0-1.54.46-1.84 1.16l-16.8 39.66-1.81-6.04c-.02-.08-.05-.16-.09-.24-2.63-5.7-9.76-14.6-19.71-21.66z"/></defs><clipPath id="SVGID_26_"><use xlink:href="#SVGID_25_" overflow="visible"/></clipPath><g clip-path="url(#SVGID_26_)"><defs><path id="SVGID_27_" d="M-5387.67-1256.21h8319.62V4290.2h-8319.62z"/></defs><clipPath id="SVGID_28_"><use xlink:href="#SVGID_27_" overflow="visible"/></clipPath></g></g><g><defs><path id="SVGID_29_" d="M781.91 964.44c-2.85 0-4.91 3.27-4.91 8.01 0 3.16 1.03 4.74 3.2 4.74 2.97 0 5.14-3.27 5.14-8.12-.01-3.05-1.26-4.63-3.43-4.63zm12.67-11.28l-4.91 29.57h-6.05l.34-2.14c-1.83 1.81-3.54 2.6-5.93 2.6-4.68 0-7.76-3.95-7.76-9.93 0-8.01 4.79-14.78 10.5-14.78 2.4 0 4.34 1.02 6.05 3.27l1.37-8.58 6.39-.01zm-24.88 12.41c-3.65-.34-4.11 2.48-6.51 17.15h-6.39l.34-1.58c1.37-7.45 2.51-15.01 3.31-22.46h5.93c0 1.24-.23 2.48-.46 3.72 2.05-2.93 3.54-4.4 6.16-3.84-.79 1.37-1.81 3.96-2.38 7.01zM747.55 972c-3.65 0-5.48 1.24-5.48 3.61 0 1.47.91 2.48 2.28 2.48 2.62 0 4.45-2.48 4.57-6.09h-1.37zm7.99-2.03c-.57 3.5-1.71 10.95-1.94 12.75h-5.25l.11-2.48c-1.6 2.03-3.77 2.93-6.73 2.93-3.54 0-5.82-2.71-5.82-6.54 0-5.87 4.11-9.25 11.19-9.25.8 0 1.71 0 2.62.11.23-.79.23-1.13.23-1.47 0-1.69-1.14-2.26-4.11-2.26-3.08 0-5.71.79-6.73 1.13 0 0 0-.45.91-5.42 3.2-.9 5.25-1.24 7.65-1.24 5.48 0 8.33 2.37 8.33 7 0 1.24-.11 2.71-.46 4.74zm-19.06-9.59c-2.28-1.13-3.88-1.58-5.71-1.58-4.79 0-8.1 4.63-8.1 11.06 0 4.51 2.17 7.22 5.94 7.22 1.6 0 3.31-.45 5.48-1.47l-1.14 6.66c-2.4.68-3.88.9-5.71.9-6.85 0-11.19-4.85-11.19-12.75 0-10.61 5.94-17.94 14.5-17.94 2.74 0 6.05 1.13 6.96 1.47l-1.03 6.43zm-22.83 5.19c-3.54-.34-4.11 2.48-6.39 17.15h-6.39l.34-1.58c1.26-7.45 2.51-15.01 3.31-22.46h5.82c.11 1.24-.23 2.48-.34 3.72 1.94-2.93 3.42-4.4 6.16-3.84-.79 1.37-1.82 3.96-2.51 7.01zm-19.29 2.37c0-.45.68-4.29-2.97-4.29-2.06 0-3.54 1.58-4.11 4.29h7.08zm5.14 4.85h-12.67c-.46 3.5 1.83 4.96 5.48 4.96 2.28 0 4.34-.45 6.62-1.58l-1.03 6.09c-2.17.56-4.34.9-6.51.9-7.19 0-10.84-3.72-10.84-10.72 0-8.24 4.68-14.22 11.07-14.22 5.25 0 8.67 3.39 8.67 8.69.01 1.71-.22 3.51-.79 5.88zm-19.17-14.1l-.8 5.87h-3.31c-.68 4.51-1.83 10.27-1.83 10.95 0 1.24.68 1.81 2.17 1.81.62 0 1.23-.07 1.83-.23l-.91 5.3c-1.71.56-3.08.79-4.57.79-3.31 0-5.02-1.81-5.14-5.3 0-1.02.46-3.84.91-6.32 0 0 .34-2.26 2.85-16.48h6.28l-.69 3.61h3.21zm-14.16 5.53c-1.71-.23-3.42-.34-4.68-.34-2.06 0-3.08.68-3.08 1.92 0 1.13.23 1.47 2.97 2.6 3.2 1.47 4.57 3.5 4.57 6.77 0 5.53-3.2 8.12-9.93 8.01-3.88 0-5.25-.34-6.62-.68 0 0 0-.23.8-5.53 2.05.56 3.88.9 5.82.9 2.51 0 3.65-.68 3.65-2.14 0-1.13-.46-1.47-2.97-2.71-3.42-1.58-4.91-3.61-4.91-6.66 0-4.51 2.4-8.12 9.59-8.12 1.48 0 3.99.11 5.71.45l-.92 5.53zM640.72 972c-3.54 0-5.36 1.24-5.36 3.61 0 1.47.8 2.48 2.28 2.48 2.63 0 4.45-2.48 4.57-6.09h-1.49zm8.1-2.03c-.57 3.5-1.83 10.95-1.94 12.75h-5.36l.11-2.48c-1.6 2.03-3.77 2.93-6.62 2.93-3.54 0-5.94-2.71-5.94-6.54 0-5.87 4.22-9.25 11.3-9.25.69 0 1.6 0 2.63.11.11-.79.23-1.13.23-1.47 0-1.69-1.14-2.26-4.11-2.26-3.2 0-5.71.79-6.73 1.13 0 0 0-.45.8-5.42 3.2-.9 5.36-1.24 7.65-1.24 5.59 0 8.45 2.37 8.45 7-.01 1.24-.24 2.71-.47 4.74zm-18.49-16.81l-5.02 29.57h-6.39l3.65-22.68-8.1 22.68h-4.45l-.46-22.57-3.88 22.57h-6.05l5.02-29.57h9.25l.23 18.39 6.28-18.39h9.92zm108.43-46.72c-14.04 0-26.94 4.63-37.44 12.41a65.806 65.806 0 0119.52 32.05h-5.71c-3.31-11.17-9.59-20.99-18.03-28.55-8.45 7.56-14.72 17.38-18.03 28.55h-5.71a65.806 65.806 0 0119.52-32.05c-10.5-7.79-23.4-12.41-37.44-12.41-34.36 0-62.09 27.53-62.09 61.39s27.74 61.39 62.09 61.39c14.04 0 26.94-4.63 37.44-12.41-8.79-8.01-15.41-18.28-18.83-29.79h5.71c3.42 10.16 9.47 19.3 17.35 26.29 7.88-7 13.92-16.14 17.35-26.29h5.71c-3.42 11.51-10.04 21.78-18.83 29.79 10.5 7.79 23.4 12.41 37.44 12.41 34.36 0 62.09-27.53 62.09-61.39s-27.75-61.39-62.11-61.39zm89.83 133.6c0 7.9-6.62 14.44-14.61 14.44H580.23c-7.99 0-14.61-6.54-14.61-14.44V895.61c0-7.9 6.62-14.44 14.61-14.44h233.76c7.99 0 14.61 6.54 14.61 14.44v144.43z"/></defs><clipPath id="SVGID_30_"><use xlink:href="#SVGID_29_" overflow="visible"/></clipPath><g clip-path="url(#SVGID_30_)"><defs><path id="SVGID_31_" d="M-5371.67-1254.21h8319.62V4292.2h-8319.62z"/></defs><clipPath id="SVGID_32_"><use xlink:href="#SVGID_31_" overflow="visible"/></clipPath></g></g><g><defs><path id="SVGID_33_" d="M1103.04 983.55c-.45.11-1.49.23-2.06.23h-17.59v-15.65h17.59c.57 0 1.61.11 2.06.22 3.45.68 6.22 3.69 6.22 7.6 0 4.02-2.76 6.93-6.22 7.6zm-19.65-38.68h15.99c.57 0 1.37.11 1.73.11 3.33.56 6.08 3.24 6.08 7.15s-2.75 6.49-6.08 7.04c-.35.11-1.16.11-1.73.11h-15.99v-14.41zm34.25 19.01v-.33c8.96-1.23 13.91-6.93 13.91-13.52 0-8.5-7.24-13.42-17.01-13.87-.69 0-1.94-.11-2.98-.11h-52.3v57h56.43c11.14 0 19.42-5.81 19.42-14.86.01-8.27-7.58-13.64-17.47-14.31zm-142.75.67c0 16.21 11.5 31.74 51.94 29.96 0 0 11.61-.45 23.91-3.47v-12.63c-5.96 3.02-13.56 5.92-22.99 6.6-16.54 1.22-26.42-6.6-26.42-20.46s9.89-21.68 26.42-20.46c9.43.68 16.91 3.47 22.99 6.49v-12.51c-12.3-3.02-23.91-3.47-23.91-3.47-40.44-1.79-51.94 13.75-51.94 29.95zm-32.4 5.92c0 8.38-5.86 14.64-16.44 14.64-8.96 0-17.81-2.57-26.32-6.59v12.51c13.79 3.69 31.27 3.69 31.27 3.69 29.19 0 37.7-10.84 37.7-24.26v-34.42h-26.21v34.43zm197.09 65.94c0 5.36-4.66 9.89-10.17 9.89H899.39c-5.51 0-10.17-4.53-10.17-9.89V896.6c0-5.36 4.66-9.89 10.17-9.89h230.02c5.51 0 10.17 4.53 10.17 9.89v139.81zm2.95-152.56a18.723 18.723 0 00-13.11-5.32H899.39c-4.93 0-9.58 1.89-13.11 5.32-3.53 3.43-5.47 7.96-5.47 12.75v139.81c0 4.79 1.94 9.32 5.47 12.75 3.53 3.43 8.19 5.32 13.11 5.32h230.02c4.93 0 9.58-1.89 13.11-5.32 3.53-3.43 5.47-7.96 5.47-12.75V896.6c.01-4.79-1.93-9.31-5.46-12.75z"/></defs><clipPath id="SVGID_34_"><use xlink:href="#SVGID_33_" overflow="visible"/></clipPath><g clip-path="url(#SVGID_34_)"><defs><path id="SVGID_35_" d="M-5442.33-1289.29h8446.06v5630.7h-8446.06z"/></defs><clipPath id="SVGID_36_"><use xlink:href="#SVGID_35_" overflow="visible"/></clipPath></g></g><g><defs><path id="SVGID_37_" d="M1438.68 927.76h-216.24v-15.52c0-9.65 7.8-17.49 17.39-17.49h181.46c9.59 0 17.39 7.84 17.39 17.49v15.52zm0 93.21c0 9.65-7.8 17.49-17.39 17.49h-181.46c-9.59 0-17.39-7.84-17.39-17.49v-69.9h216.24v69.9zm-17.39-141.77h-181.46c-18.13 0-32.84 14.79-32.84 33.03v108.73c0 18.24 14.71 33.03 32.84 33.03h181.46c18.13 0 32.84-14.79 32.84-33.03V912.23c0-18.23-14.71-33.03-32.84-33.03z"/></defs><clipPath id="SVGID_38_"><use xlink:href="#SVGID_37_" overflow="visible"/></clipPath><g clip-path="url(#SVGID_38_)"><defs><path id="SVGID_39_" d="M-2722.47-2427.99h8390.33v5593.55h-8390.33z"/></defs><clipPath id="SVGID_40_"><use xlink:href="#SVGID_39_" overflow="visible"/></clipPath></g></g><g><defs><path id="SVGID_41_" d="M1213.99 949.12h230.73v90.9h-230.73z"/></defs><clipPath id="SVGID_42_"><use xlink:href="#SVGID_41_" overflow="visible"/></clipPath><g clip-path="url(#SVGID_42_)"><defs><path id="SVGID_43_" d="M-2722.47-2427.99h8390.33v5593.55h-8390.33z"/></defs><clipPath id="SVGID_44_"><use xlink:href="#SVGID_43_" overflow="visible"/></clipPath></g></g><g><defs><path id="SVGID_45_" d="M1346.84 949.12h90.9v34.96h-90.9z"/></defs><clipPath id="SVGID_46_"><use xlink:href="#SVGID_45_" overflow="visible"/></clipPath><g clip-path="url(#SVGID_46_)"><defs><path id="SVGID_47_" d="M-2722.47-2427.99h8390.33v5593.55h-8390.33z"/></defs><clipPath id="SVGID_48_"><use xlink:href="#SVGID_47_" overflow="visible"/></clipPath></g></g></svg>