<svg width="0" height="0" class="hidden">
  <symbol viewBox="0 0 6827 6827" xmlns="http://www.w3.org/2000/svg" shape-rendering="geometricPrecision" text-rendering="geometricPrecision" image-rendering="optimizeQuality" fill-rule="evenodd" clip-rule="evenodd" id="unionPay">
    <path d="M1324 1760h4178c130 0 247 53 333 138 85 85 138 203 138 333v2364c0 130-53 247-138 333-85 85-203 138-333 138H1324c-130 0-247-53-333-138-85-85-138-203-138-333V2231c0-130 53-247 138-333 85-85 203-138 333-138zm4178 160H1324c-85 0-163 35-220 91-56 56-91 134-91 220v2364c0 85 35 163 91 220 56 56 134 91 220 91h4178c85 0 163-35 220-91 56-56 91-134 91-220V2231c0-85-35-163-91-220-56-56-134-91-220-91z"></path>
    <path d="M1742 3040h178v344c0 34-5 66-16 97-11 30-27 57-50 79-23 23-46 39-71 48-35 13-76 19-125 19-28 0-59-2-92-6s-61-12-83-23c-22-12-43-28-61-50-19-21-31-44-38-66-11-37-17-69-17-97v-344h178v352c0 32 9 56 26 74s42 27 73 27 55-9 72-26 26-42 26-74v-352zm285 159h149v68c22-28 45-48 68-59 23-12 51-18 83-18 44 0 79 13 104 40 25 26 37 67 37 122v266h-161v-230c0-26-5-45-15-56s-23-16-41-16c-19 0-35 7-47 22s-18 41-18 79v201h-160v-418zm543-159h160v109h-160v-109zm0 159h160v418h-160v-418zm243 210c0-64 21-116 64-158 43-41 101-62 174-62 84 0 147 24 190 73 34 39 52 87 52 144 0 64-21 117-64 158s-102 62-177 62c-67 0-121-17-163-51-51-42-76-97-76-166zm160 0c0 37 8 65 23 83s34 27 57 27 42-9 57-26c15-18 22-46 22-85 0-36-8-63-22-81-15-18-33-26-55-26-23 0-43 9-58 27s-23 45-23 82zm397-210h149v68c22-28 45-48 68-59 23-12 51-18 83-18 44 0 79 13 104 40 25 26 37 67 37 122v266h-161v-230c0-26-5-45-15-56s-23-16-41-16c-19 0-35 7-47 22s-18 41-18 79v201h-160v-418zm547-159h296c64 0 113 15 145 46s48 74 48 131c0 58-17 104-53 137-35 33-88 49-160 49h-97v214h-179v-577zm179 246h44c34 0 58-6 72-18s21-27 21-46c0-18-6-34-18-46-12-13-35-19-68-19h-51v129zm525 48l-153-16c6-27 14-48 25-63s26-29 47-40c15-8 35-15 61-19s53-7 83-7c48 0 87 3 116 8s53 17 73 34c14 12 24 28 32 50s12 42 12 62v185c0 20 1 35 4 46s8 25 16 43h-150c-6-11-10-19-12-25s-4-15-6-27c-21 20-42 35-63 43-28 12-61 17-99 17-50 0-88-12-114-35s-39-51-39-85c0-32 9-58 28-78 19-21 53-36 103-46 60-12 99-21 117-25 18-5 37-11 57-19 0-20-4-33-12-41s-22-12-43-12c-26 0-46 4-59 13-10 7-19 19-25 37zm139 84c-22 8-45 15-69 21-32 9-53 17-62 26s-13 19-13 30c0 13 4 23 13 31s22 12 39 12c18 0 34-4 50-13 15-9 26-19 33-32 6-12 10-29 10-49v-26zm206-219h169l86 278 80-278h158l-166 446c-19 51-38 85-58 103-28 25-70 38-127 38-23 0-59-3-107-10l-12-112c23 7 49 11 77 11 19 0 34-4 46-13s22-24 30-46l-175-418z"></path>
  </symbol>
  <symbol xmlns="http://www.w3.org/2000/svg" viewBox="0 0 550 550" id="webAtm">
    <path d="M306.64 468.24c-4.63 3.77-9.28 6.73-13.96 8.96-3.18.34-6.38.59-9.6.78v-37.31c-7.69-6.3-15.43-12.84-23.19-19.55v56.87c-3.22-.2-6.42-.45-9.59-.79-4.68-2.24-9.34-5.2-13.97-8.96-15.08-12.28-29.2-33-40.03-59.68h49.3c-8.4-7.51-16.81-15.25-25.22-23.19h-32.19c-3.84-12.78-6.94-26.57-9.29-41.03-9.16-9.48-18.05-18.97-26.69-28.46 1.94 24.69 5.92 48.11 11.85 69.48h-59.25c-16.59-26.81-26.87-57.89-28.82-91.27h56.87c-6.72-7.76-13.26-15.5-19.55-23.19H75.99c.8-13.68 3.07-26.94 6.52-39.71-7.87-10.74-15.26-21.33-22.07-31.7-10.12 25.72-15.75 53.7-15.75 83.01.01 125.26 101.53 226.77 226.78 226.77 29.3 0 57.28-5.62 82.99-15.74-13.81-9.08-28.02-19.18-42.47-30.12-1.77 1.73-3.55 3.36-5.35 4.83zM132.98 421c-3.97-3.97-7.75-8.14-11.36-12.44h49.96c3.72 10.15 7.81 19.81 12.4 28.69 5.4 10.43 11.38 19.92 17.91 28.34-26.08-9.91-49.5-25.2-68.91-44.59zM106.6 126.88c4.95 8.87 10.58 18.11 16.78 27.63 3.1-3.59 6.24-7.14 9.6-10.5 19.44-19.43 42.91-34.75 69.05-44.66-12.15 15.6-22.36 34.95-30.49 57.09h-46.92c4.97 7.56 10.32 15.31 15.99 23.19h23.5c-2.14 7.69-3.97 15.7-5.62 23.88 6.21 7.99 12.71 16.07 19.48 24.21 2.44-17.05 5.87-33.24 10.34-48.09h71.58v91.27h-44.06c7.17 7.75 14.5 15.49 22.02 23.19h22.05v22.05c7.7 7.5 15.44 14.86 23.19 22.02V294.1h85.69c-.95 33.3-6 64.37-14.1 91.27H337.7c11.14 8.98 22.14 17.43 32.9 25.27.26-.71.57-1.36.84-2.08h49.91c-3.62 4.3-7.39 8.46-11.36 12.44-3.35 3.35-6.87 6.54-10.46 9.63 9.51 6.19 18.73 11.81 27.58 16.76 43.8-41.34 71.17-99.9 71.17-164.89-.01-125.25-101.54-226.78-226.8-226.79-64.99.02-123.53 27.39-164.88 71.17zm331.56 258.49h-59.31c7.66-27.6 12.29-58.48 13.19-91.27h74.94c-1.95 33.39-12.23 64.46-28.82 91.27zm-.02-205.74c16.6 26.81 26.88 57.89 28.83 91.27h-75.01c-.91-32.77-5.41-63.69-13.06-91.27h59.24zm-28.17-35.62c3.97 3.97 7.74 8.13 11.36 12.43h-49.94c-3.72-10.14-7.82-19.8-12.4-28.68-5.4-10.43-11.38-19.92-17.9-28.34 26.07 9.91 49.48 25.21 68.88 44.59zM283.08 87.02c3.22.2 6.43.45 9.6.79 4.68 2.23 9.32 5.19 13.95 8.95 15.08 12.27 29.2 33 40.02 59.68h-63.58V87.02zm0 92.61h71.69c8.1 26.89 13.12 58.01 14.08 91.27h-85.77v-91.27zm-46.75-82.87c4.63-3.77 9.27-6.73 13.95-8.96 3.18-.34 6.38-.59 9.6-.79v69.42h-63.46c2.56-6.32 5.25-12.42 8.15-18.04 9.33-18.05 20.29-32.26 31.76-41.63z"></path>
    <path d="M521.26 438.3c-4.7-12.66-11.22-26.35-19.21-40.86a258.509 258.509 0 0 1-18.54 31.31c3.5 7.23 6.43 14.02 8.74 20.29 4.72 12.65 6.85 23.19 6.81 30.25 0 3.34-.45 5.86-1.03 7.55-.59 1.7-1.21 2.58-1.92 3.31-.72.69-1.59 1.31-3.3 1.9-1.68.57-4.2 1.02-7.54 1.02-6.66.03-16.44-1.85-28.15-6.04-11.73-4.16-25.42-10.53-40.44-18.87-51.48-28.62-118.36-80.58-184.29-146.56-65.97-65.93-117.93-132.8-146.55-184.3-8.35-15.02-14.71-28.7-18.87-40.43-4.18-11.71-6.07-21.49-6.04-28.15 0-3.35.45-5.87 1.03-7.54.59-1.71 1.2-2.57 1.9-3.3.74-.72 1.62-1.34 3.32-1.92 1.68-.57 4.2-1.03 7.56-1.03 7.04-.04 17.59 2.09 30.22 6.8 6.29 2.33 13.12 5.27 20.38 8.77 9.95-6.89 20.4-13.08 31.29-18.54-14.54-8.01-28.26-14.54-40.94-19.24-14.84-5.46-28.32-8.68-40.94-8.72-6 .01-11.86.76-17.48 2.66-5.6 1.89-10.95 5.01-15.27 9.36-4.33 4.31-7.45 9.65-9.33 15.24-1.89 5.61-2.65 11.46-2.66 17.46.04 11.93 2.91 24.61 7.83 38.51 4.94 13.88 12.01 28.96 20.99 45.11 30.76 55.2 84.09 123.47 151.72 191.13 67.66 67.63 135.93 120.96 191.12 151.72 16.17 8.98 31.24 16.05 45.12 20.99 13.9 4.91 26.58 7.78 38.5 7.82 6 0 11.85-.76 17.46-2.65 5.59-1.88 10.92-4.99 15.24-9.32 4.35-4.33 7.47-9.68 9.36-15.27 1.89-5.62 2.65-11.48 2.66-17.47-.06-12.64-3.27-26.13-8.75-40.99z"></path>
    <defs>
      <path id="l" d="M664.84 949.12h90.9v34.96h-90.9z"></path>
    </defs>
  </symbol>
  <symbol xmlns="http://www.w3.org/2000/svg" viewBox="0 0 512 379" id="shop">
    <path d="M147.24 150.8c21.26 0 38.49-13.82 38.49-30.85L199.78 1.94h-61.57l-29.45 118.02c0 17.02 17.23 30.84 38.48 30.84zm108.76 0c21.25 0 38.48-13.82 38.48-30.85L286.79 1.94h-61.58l-7.7 118.02c.01 17.02 17.24 30.84 38.49 30.84zm108.76 0c21.25 0 38.48-13.82 38.48-30.85L373.79 1.94h-61.57l14.05 118.02c.01 17.02 17.24 30.84 38.49 30.84z"></path>
    <path d="M460.8 1.94h-61.57l35.81 118.02c0 14.42 12.39 26.43 29.08 29.81v201.36h-58V214.88h-146.3v136.25H47.9V149.76c16.67-3.38 29.07-15.39 29.07-29.81l35.8-118.02H51.2L0 119.95c0 10.17 6.22 19.12 15.7 24.74v232.24h480.61V144.69c9.47-5.62 15.69-14.57 15.69-24.74L460.8 1.94zm-78.83 349.18h-98.01V234.23h98.01v116.89z"></path>
    <path d="M109.4 205.73h85.58v68.59H109.4z"></path>
    <defs>
      <path id="l" d="M3279.84 949.12h90.9v34.96h-90.9z"></path>
    </defs>
  </symbol>
  <symbol xmlns="http://www.w3.org/2000/svg" viewBox="0 0 512 379" id="creditCard">
    <path d="M432.22 21H79.78C44.56 21 16 49.56 16 84.78v209.94c0 35.21 28.56 63.78 63.78 63.78h352.44c35.21 0 63.78-28.56 63.78-63.78V84.78C496 49.56 467.44 21 432.22 21zM466 294.72c0 18.63-15.15 33.78-33.78 33.78H79.78C61.15 328.5 46 313.35 46 294.72V159.75h420v134.97zm0-179.97H46V84.78C46 66.15 61.15 51 79.78 51h352.44C450.85 51 466 66.15 466 84.78v29.97z"></path>
    <path d="M113.5 220.99h60v60h-60zm146.25 0h150v22.5h-150zm0 45h120v22.5h-120z"></path>
    <defs>
      <path id="l" d="M1891.84 949.12h90.9v34.96h-90.9z"></path>
    </defs>
  </symbol>
  <symbol xmlns="http://www.w3.org/2000/svg" viewBox="0 0 631 379" id="atm">
    <path d="M605.34 339.29l-14.35-14.35-36.66-36.66-97.07-97.02c9.41-9.71 15.21-22.92 15.21-37.5V99.7c0-29.84-24.2-54.04-54.06-54.04H76.06C46.2 45.65 22 69.86 22 99.7v54.06c0 29.86 24.2 54.06 54.06 54.06h71.91L288.19 348h313.53c2.07 0 3.94-1.23 4.73-3.14.79-1.91.36-4.11-1.11-5.57zm-110.21-19.11c.11.29.34.54.46.8H340.71c-8.8-12.64-35.71-22.45-64.5-23.17L116.2 137.82h249.37L522.9 295.06c-20.48 3.97-32.25 13.71-27.77 25.12z"></path>
    <path d="M371.47 256.8c-6.85 0-11.4 2.53-10.17 5.64 1.21 3.11 7.75 5.62 14.58 5.62 6.85 0 11.4-2.52 10.19-5.62-1.24-3.11-7.77-5.64-14.6-5.64zm-138.7-56.31c8.55 21.76 54.29 39.43 102.2 39.43 47.89 0 79.78-17.67 71.23-39.43-8.57-21.76-54.31-39.43-102.2-39.43-47.9 0-79.8 17.67-71.23 39.43zm79.4-17.55c1.93-2.61 6.5-4.09 13.73-4.55 4.05-.27 7.98-.05 11.87.66 3.87.71 7.55 1.79 11.03 3.28 3.46 1.46 6.6 3.28 9.41 5.39 1.16.89 2.25 1.82 3.25 2.77l11.44-.62 6.87 8.85-11.46.54c1.23 2.11 2.14 4.12 2.64 6.03.84 3.25-1.3 6.82-1.3 6.82-.07.45-.59.75-1.39.86-.75.11-1.73-.02-2.57-.32l-10.8-3.96c-1.12-.43-1.8-1.12-1.73-1.71 0 0 1.32-2.64.73-4.82-.55-2.18-1.7-4.39-3.41-6.71-2.21-3-4.82-5.16-7.93-6.46-3.05-1.29-6.18-1.86-9.39-1.64-2.91.16-4.73.79-5.59 1.86-.84 1.07-.66 2.82.59 5.21l3.73 6.82c2.75 5.14 3.09 9.16.96 11.99-2.14 2.86-7.01 4.39-14.55 4.68-4.5.14-8.71-.23-12.67-1.18-3.98-.93-7.6-2.25-10.94-3.96s-6.28-3.75-8.89-6.16a49.388 49.388 0 0 1-3.07-3.27l-11.73.54-4.94-8.23 11.3-.61c-1.11-2.36-1.84-4.59-2.16-6.71-.48-3.21 2.87-7.64 2.87-7.64.14-.37.61-.64 1.27-.75.66-.07 1.46 0 2.11.25l9.55 3.53c1.03.39 1.61 1.09 1.41 1.64 0 0-2.62 3.32-2.21 5.69.41 2.39 1.34 4.75 2.84 7.1 1.95 2.98 4.43 5.41 7.55 7.3 3.14 1.93 6.64 2.82 10.6 2.64 2.84-.11 4.77-.71 5.78-1.79.96-1.07.87-2.78-.23-5.18l-4.03-7.67c-2.27-4.46-2.45-7.94-.54-10.51z"></path>
    <defs>
      <path id="l" d="M1346.84 949.12h90.9v34.96h-90.9z"></path>
    </defs>
  </symbol>
</svg>